<svg width="100%" height="100%" viewBox="0 0 16 16" version="1.1" xmlns="http://www.w3.org/2000/svg" xmlns:xlink="http://www.w3.org/1999/xlink" xml:space="preserve" xmlns:serif="http://www.serif.com/" style="fill-rule:evenodd;clip-rule:evenodd;stroke-linejoin:round;stroke-miterlimit:2;"><g transform="matrix(0.00895528,0,0,0.00895528,-2.06021,-2.57914)"><g transform="matrix(-3.30807,0,0,3.30807,3188.7,-172.378)"><g transform="matrix(1.10077,-1.10077,0.547094,0.547094,-438.368,799.315)"><path d="M620.654,433.339C620.654,433.339 620.647,433.339 620.633,433.339C600.516,433.339 581.223,449.417 566.999,478.038C552.774,506.658 544.783,545.475 544.783,585.951C544.783,692.221 544.783,814.976 544.783,814.976C544.783,814.976 544.79,814.976 544.804,814.976C564.92,814.976 584.213,798.898 598.438,770.277C612.662,741.657 620.654,702.84 620.654,662.364C620.654,556.094 620.654,433.339 620.654,433.339Z" style="fill:rgb(0,0,1);"/></g><g transform="matrix(1.10077,-1.10077,0.547094,0.547094,-438.368,619.044)"><path d="M620.654,433.339C620.654,433.339 620.647,433.339 620.633,433.339C600.516,433.339 581.223,449.417 566.999,478.038C552.774,506.658 544.783,545.475 544.783,585.951C544.783,692.221 544.783,814.976 544.783,814.976C544.783,814.976 544.79,814.976 544.804,814.976C564.92,814.976 584.213,798.898 598.438,770.277C612.662,741.657 620.654,702.84 620.654,662.364C620.654,556.094 620.654,433.339 620.654,433.339Z" style="fill:rgb(0,0,1);"/></g></g><g transform="matrix(-3.30807,0,0,3.30807,3189.7,-772.378)"><g transform="matrix(-0.302291,0,0,0.302291,964.218,233.483)"><path d="M375.967,605.3L766.684,996.017L766.684,1962.54C766.684,1962.54 766.648,1962.54 766.576,1962.54C662.98,1962.54 563.627,1921.38 490.373,1848.13C417.12,1774.88 375.967,1675.52 375.967,1571.93C375.967,1170.96 375.967,605.3 375.967,605.3Z" style="fill:rgb(0,0,1);"/></g><g transform="matrix(-0.302291,0,0,0.302291,964.218,233.483)"><path d="M766.684,399.668L1159.21,792.191L1159.2,792.2L1158.73,792.672C1109.37,842.254 1072.57,904.057 1052.88,970.947C1028.38,1054.2 1030.35,1144.9 1058.3,1226.82C1061.47,1236.12 1064.97,1245.29 1068.79,1254.33L375.967,561.509L375.967,399.668L766.684,399.668L766.684,399.668Z" style="fill:rgb(0,0,1);"/></g></g></g></svg>
