<svg xmlns="http://www.w3.org/2000/svg" width="24" height="24" viewBox="0 0 24 24" role="none">
  <path d="M12,21.5c-5.237,0 -9.5,-4.263 -9.5,-9.5c0,-5.237 4.263,-9.5 9.5,-9.5c5.237,0 9.5,4.263 9.5,9.5c0,5.237 -4.263,9.5 -9.5,9.5Zm8.012,-8.2c-0.277,-0.087 -2.51,-0.755 -5.054,-0.347c1.06,2.917 1.494,5.292 1.577,5.786c1.82,-1.231 3.116,-3.183 3.479,-5.439l-0.002,-0Zm-4.841,6.181c-0.122,-0.712 -0.594,-3.192 -1.734,-6.151l-0.052,0.016c-4.584,1.595 -6.223,4.77 -6.365,5.066c1.369,1.076 3.103,1.715 4.979,1.715c1.124,0 2.193,-0.229 3.167,-0.644l0.005,-0.002Zm-9.2,-2.042c0.184,-0.317 2.411,-4.002 6.597,-5.356c0.106,-0.036 0.213,-0.066 0.32,-0.095c-0.206,-0.463 -0.427,-0.924 -0.658,-1.377c-4.054,1.211 -7.984,1.159 -8.34,1.151l-0.003,0.247c0,2.085 0.79,3.988 2.085,5.427l-0.001,0.003Zm-1.915,-7.09c0.364,0.007 3.707,0.021 7.502,-0.988c-1.344,-2.389 -2.794,-4.4 -3.008,-4.693c-2.271,1.069 -3.966,3.159 -4.494,5.677l-0,0.004Zm6.044,-6.225c0.223,0.301 1.698,2.307 3.026,4.75c2.885,-1.08 4.109,-2.723 4.253,-2.93c-1.433,-1.275 -3.317,-2.048 -5.379,-2.048c-0.653,0 -1.29,0.08 -1.9,0.226l0,0.002Zm8.182,2.758c-0.173,0.229 -1.532,1.973 -4.532,3.198c0.19,0.388 0.372,0.78 0.539,1.177c0.063,0.142 0.118,0.285 0.174,0.419c2.699,-0.34 5.383,0.206 5.652,0.261c-0.015,-1.915 -0.696,-3.673 -1.828,-5.05l-0.005,-0.005Z"/>
</svg>
