<svg xmlns="http://www.w3.org/2000/svg" width="24" height="24" viewBox="0 0 24 24" role="none">
  <path d="M12,2.5c-5.382,-0 -9.741,4.361 -9.741,9.741c-0,4.305 2.791,7.955 6.66,9.242c0.487,0.092 0.666,-0.209 0.666,-0.468c-0,-0.232 -0.008,-0.845 -0.012,-1.656c-2.71,0.587 -3.281,-1.307 -3.281,-1.307c-0.444,-1.125 -1.084,-1.425 -1.084,-1.425c-0.882,-0.604 0.068,-0.592 0.068,-0.592c0.978,0.068 1.492,1.004 1.492,1.004c0.869,1.489 2.28,1.059 2.837,0.81c0.088,-0.63 0.339,-1.06 0.617,-1.303c-2.163,-0.244 -4.437,-1.081 -4.437,-4.814c0,-1.063 0.378,-1.932 1.003,-2.614c-0.11,-0.246 -0.439,-1.236 0.085,-2.578c-0,0 0.816,-0.261 2.679,0.999c0.779,-0.217 1.607,-0.324 2.435,-0.329c0.828,0.005 1.656,0.112 2.435,0.329c1.851,-1.26 2.667,-0.999 2.667,-0.999c0.524,1.342 0.195,2.332 0.097,2.578c0.621,0.682 0.999,1.551 0.999,2.614c-0,3.742 -2.277,4.566 -4.445,4.806c0.341,0.292 0.658,0.889 0.658,1.802c-0,1.304 -0.012,2.351 -0.012,2.667c-0,0.256 0.17,0.56 0.669,0.463c3.898,-1.278 6.686,-4.931 6.686,-9.229c0,-5.38 -4.361,-9.741 -9.741,-9.741"/>
</svg>
