<svg xmlns="http://www.w3.org/2000/svg" width="24" height="24" viewBox="0 0 24 24" role="none">
  <path d="M18.688,18.691l-2.814,0l-0,-4.409c-0,-1.051 -0.022,-2.404 -1.467,-2.404c-1.466,0 -1.691,1.144 -1.691,2.327l0,4.486l-2.813,0l-0,-9.066l2.703,0l-0,1.236l0.036,-0c0.378,-0.713 1.296,-1.465 2.668,-1.465c2.851,0 3.378,1.876 3.378,4.319l0,4.976Zm-11.963,-10.307c-0.906,0 -1.633,-0.733 -1.633,-1.634c-0,-0.901 0.728,-1.634 1.633,-1.634c0.903,0 1.634,0.733 1.634,1.634c0,0.901 -0.732,1.634 -1.634,1.634Zm1.411,10.307l-2.822,0l0,-9.066l2.822,0l-0,9.066Zm11.959,-16.191l-16.193,0c-0.775,0 -1.402,0.613 -1.402,1.369l0,16.262c0,0.757 0.627,1.369 1.402,1.369l16.19,0c0.775,0 1.408,-0.612 1.408,-1.369l0,-16.262c0,-0.756 -0.633,-1.369 -1.408,-1.369l0.003,0Z"/>
</svg>
