<svg xmlns="http://www.w3.org/2000/svg" width="24" height="24" viewBox="0 0 24 24" role="none">
  <path d="M12,2.5c-5.212,0 -9.5,4.288 -9.5,9.5c0,5.212 4.288,9.5 9.5,9.5c5.212,0 9.5,-4.288 9.5,-9.5c0,-5.212 -4.288,-9.5 -9.5,-9.5Zm3.966,3.756c0.545,-0 0.99,0.444 0.99,0.988c-0.006,0.539 -0.451,0.979 -0.99,0.979c-0.522,0 -0.959,-0.413 -0.988,-0.934l-2.056,-0.433l-0.633,2.966c1.444,0.056 2.755,0.5 3.7,1.178c0.244,-0.245 0.578,-0.389 0.956,-0.389c0.766,0 1.388,0.623 1.388,1.389c0,0.567 -0.344,1.055 -0.799,1.278c0.022,0.136 0.033,0.274 0.033,0.411c-0,2.133 -2.478,3.856 -5.545,3.856c-3.067,-0 -5.545,-1.723 -5.545,-3.856c0,-0.144 0.012,-0.289 0.034,-0.422c-0.499,-0.222 -0.823,-0.72 -0.822,-1.267c-0,-0.766 0.622,-1.389 1.388,-1.389c0.367,0 0.711,0.156 0.956,0.388c0.955,-0.699 2.278,-1.132 3.756,-1.177l0.7,-3.311c0.017,-0.063 0.056,-0.119 0.111,-0.156c0.057,-0.033 0.124,-0.044 0.188,-0.033l2.301,0.489c0.159,-0.34 0.502,-0.558 0.877,-0.555Zm-6.143,5.744c-0.546,-0 -0.99,0.445 -0.99,0.99c0,0.543 0.444,0.988 0.99,0.988c0.544,-0 0.988,-0.445 0.988,-0.989c-0,-0.545 -0.444,-0.989 -0.989,-0.989l0.001,-0Zm4.354,-0c-0.544,-0 -0.988,0.444 -0.988,0.99c0,0.543 0.444,0.988 0.989,0.988c0.545,-0 0.989,-0.445 0.989,-0.989c-0,-0.544 -0.445,-0.989 -0.99,-0.989Zm-4.327,3.159c-0.069,-0.001 -0.134,0.026 -0.183,0.074c-0.099,0.101 -0.099,0.266 -0,0.367c0.667,0.666 1.966,0.722 2.344,0.722c0.378,0 1.667,-0.044 2.344,-0.722c0.095,-0.1 0.105,-0.256 0.023,-0.367c-0.101,-0.1 -0.266,-0.1 -0.367,0c-0.433,0.422 -1.333,0.578 -1.989,0.578c-0.655,0 -1.567,-0.155 -1.989,-0.578c-0.048,-0.048 -0.114,-0.075 -0.183,-0.075l-0,0.001Z"/>
</svg>
