<svg xmlns="http://www.w3.org/2000/svg" width="24" height="24" viewBox="0 0 24 24" role="none">
  <path d="M11.983,2.483c-4.997,-0 -9.095,3.854 -9.483,8.753l5.101,2.108c0.433,-0.294 0.954,-0.468 1.517,-0.468c0.05,0 0.099,0.004 0.149,0.005l2.269,-3.285l0,-0.047c0,-1.979 1.608,-3.588 3.588,-3.588c1.978,0 3.588,1.611 3.588,3.591c0,1.979 -1.61,3.589 -3.588,3.589l-0.083,-0l-3.233,2.308c0,0.042 0.003,0.084 0.003,0.126c0,1.487 -1.201,2.694 -2.688,2.694c-1.297,-0 -2.392,-0.931 -2.642,-2.163l-3.653,-1.512c1.131,3.994 4.799,6.923 9.155,6.923c5.256,0 9.517,-4.261 9.517,-9.517c0,-5.256 -4.261,-9.517 -9.517,-9.517Zm-3.52,14.442l-1.169,-0.484c0.208,0.431 0.567,0.793 1.043,0.992c1.028,0.427 2.215,-0.06 2.642,-1.091c0.209,-0.499 0.21,-1.046 0.004,-1.545c-0.205,-0.5 -0.595,-0.89 -1.092,-1.097c-0.495,-0.207 -1.023,-0.198 -1.489,-0.024l1.208,0.5c0.758,0.317 1.117,1.189 0.8,1.947c-0.315,0.759 -1.188,1.118 -1.947,0.802l-0,0Zm9.053,-7.378c0,-1.318 -1.073,-2.391 -2.391,-2.391c-1.321,-0 -2.391,1.073 -2.391,2.391c-0,1.32 1.07,2.391 2.391,2.391c1.319,0 2.391,-1.071 2.391,-2.391Zm-4.182,-0.004c0,-0.993 0.803,-1.797 1.796,-1.797c0.991,-0 1.798,0.804 1.798,1.797c-0,0.992 -0.807,1.796 -1.798,1.796c-0.993,0 -1.796,-0.804 -1.796,-1.796Z"/>
</svg>
