<svg xmlns="http://www.w3.org/2000/svg" width="24" height="24" viewBox="0 0 24 24" role="none">
  <path d="M21.103,7.397c-0.219,-0.822 -0.86,-1.467 -1.68,-1.691c-1.482,-0.4 -7.423,-0.4 -7.423,-0.4c-0,0 -5.941,0 -7.423,0.4c-0.82,0.224 -1.461,0.87 -1.68,1.691c-0.397,1.492 -0.397,4.603 -0.397,4.603c-0,-0 -0,3.111 0.397,4.603c0.219,0.822 0.86,1.467 1.68,1.691c1.482,0.4 7.423,0.4 7.423,0.4c-0,-0 5.941,-0 7.423,-0.4c0.821,-0.224 1.462,-0.869 1.68,-1.691c0.397,-1.492 0.397,-4.603 0.397,-4.603c0,-0 0,-3.111 -0.397,-4.603Zm-11.047,7.428l0,-5.65l4.967,2.825l-4.967,2.825Z"/>
</svg>
